<mxfile host="app.diagrams.net" modified="2023-06-23T00:58:11.532Z" agent="Mozilla/5.0 (Windows NT 10.0; Win64; x64) AppleWebKit/537.36 (KHTML, like Gecko) Chrome/114.0.0.0 Safari/537.36" version="21.5.0" etag="b7bJJiT98AmdssSFmTPa" type="github">
  <diagram name="PÃ¡gina-1" id="PLv6Mj2nFmkCZED6wlnQ">
    <mxGraphModel>
      <root>
        <mxCell id="0" />
        <mxCell id="1" parent="0" />
      </root>
    </mxGraphModel>
  </diagram>
</mxfile>
